<mxfile host="app.diagrams.net" agent="Mozilla/5.0 (Macintosh; Intel Mac OS X 10_15_7) AppleWebKit/537.36 (KHTML, like Gecko) Chrome/131.0.0.0 Safari/537.36" version="25.0.1" pages="2">
  <diagram name="Page-1" id="lS61JWUqUJ9kZ2fYjl9S">
    <mxGraphModel dx="2420" dy="937" grid="1" gridSize="10" guides="1" tooltips="1" connect="1" arrows="1" fold="1" page="1" pageScale="1" pageWidth="850" pageHeight="1100" math="0" shadow="0">
      <root>
        <mxCell id="0" />
        <mxCell id="1" parent="0" />
        <mxCell id="Yd9kcJZPeYB2t_xTYy9D-1" value="" style="rounded=0;whiteSpace=wrap;html=1;movable=0;resizable=0;rotatable=0;deletable=0;editable=0;locked=1;connectable=0;" vertex="1" parent="1">
          <mxGeometry x="80" y="40" width="720" height="650" as="geometry" />
        </mxCell>
        <mxCell id="Yd9kcJZPeYB2t_xTYy9D-2" value="&lt;font style=&quot;font-size: 36px;&quot;&gt;Web Server&lt;/font&gt;" style="text;html=1;align=center;verticalAlign=middle;whiteSpace=wrap;rounded=0;movable=0;resizable=0;rotatable=0;deletable=0;editable=0;locked=1;connectable=0;" vertex="1" parent="1">
          <mxGeometry x="330" y="40" width="220" height="110" as="geometry" />
        </mxCell>
        <mxCell id="Yd9kcJZPeYB2t_xTYy9D-3" value="" style="rounded=1;whiteSpace=wrap;html=1;movable=0;resizable=0;rotatable=0;deletable=0;editable=0;locked=1;connectable=0;" vertex="1" parent="1">
          <mxGeometry x="110" y="130" width="660" height="540" as="geometry" />
        </mxCell>
        <mxCell id="Yd9kcJZPeYB2t_xTYy9D-4" value="&lt;font style=&quot;font-size: 36px;&quot;&gt;Docker&lt;/font&gt;" style="text;html=1;align=center;verticalAlign=middle;whiteSpace=wrap;rounded=0;movable=0;resizable=0;rotatable=0;deletable=0;editable=0;locked=1;connectable=0;" vertex="1" parent="1">
          <mxGeometry x="330" y="130" width="220" height="110" as="geometry" />
        </mxCell>
        <mxCell id="Yd9kcJZPeYB2t_xTYy9D-5" value="" style="shape=process;whiteSpace=wrap;html=1;backgroundOutline=1;movable=0;resizable=0;rotatable=0;deletable=0;editable=0;locked=1;connectable=0;" vertex="1" parent="1">
          <mxGeometry x="170" y="230" width="230" height="410" as="geometry" />
        </mxCell>
        <mxCell id="Yd9kcJZPeYB2t_xTYy9D-6" value="&lt;font style=&quot;font-size: 36px;&quot;&gt;Django&lt;/font&gt;" style="text;html=1;align=center;verticalAlign=middle;whiteSpace=wrap;rounded=0;movable=0;resizable=0;rotatable=0;deletable=0;editable=0;locked=1;connectable=0;" vertex="1" parent="1">
          <mxGeometry x="170" y="370" width="220" height="110" as="geometry" />
        </mxCell>
        <mxCell id="Yd9kcJZPeYB2t_xTYy9D-7" value="" style="shape=process;whiteSpace=wrap;html=1;backgroundOutline=1;movable=0;resizable=0;rotatable=0;deletable=0;editable=0;locked=1;connectable=0;" vertex="1" parent="1">
          <mxGeometry x="450" y="230" width="260" height="130" as="geometry" />
        </mxCell>
        <mxCell id="Yd9kcJZPeYB2t_xTYy9D-8" value="&lt;font style=&quot;font-size: 36px;&quot;&gt;Angular&lt;/font&gt;" style="text;html=1;align=center;verticalAlign=middle;whiteSpace=wrap;rounded=0;movable=0;resizable=0;rotatable=0;deletable=0;editable=0;locked=1;connectable=0;" vertex="1" parent="1">
          <mxGeometry x="470" y="240" width="220" height="110" as="geometry" />
        </mxCell>
        <mxCell id="Yd9kcJZPeYB2t_xTYy9D-9" value="" style="shape=process;whiteSpace=wrap;html=1;backgroundOutline=1;movable=0;resizable=0;rotatable=0;deletable=0;editable=0;locked=1;connectable=0;" vertex="1" parent="1">
          <mxGeometry x="450" y="470" width="260" height="170" as="geometry" />
        </mxCell>
        <mxCell id="Yd9kcJZPeYB2t_xTYy9D-10" value="&lt;font style=&quot;font-size: 36px;&quot;&gt;MySQL DB&lt;/font&gt;" style="text;html=1;align=center;verticalAlign=middle;whiteSpace=wrap;rounded=0;movable=0;resizable=0;rotatable=0;deletable=0;editable=0;locked=1;connectable=0;" vertex="1" parent="1">
          <mxGeometry x="470" y="500" width="220" height="110" as="geometry" />
        </mxCell>
        <mxCell id="Yd9kcJZPeYB2t_xTYy9D-12" value="" style="shape=flexArrow;endArrow=classic;startArrow=classic;html=1;rounded=0;" edge="1" parent="1">
          <mxGeometry width="100" height="100" relative="1" as="geometry">
            <mxPoint x="400" y="420" as="sourcePoint" />
            <mxPoint x="560" y="360" as="targetPoint" />
          </mxGeometry>
        </mxCell>
        <mxCell id="Yd9kcJZPeYB2t_xTYy9D-13" value="" style="shape=flexArrow;endArrow=classic;startArrow=classic;html=1;rounded=0;" edge="1" parent="1">
          <mxGeometry width="100" height="100" relative="1" as="geometry">
            <mxPoint x="400" y="470" as="sourcePoint" />
            <mxPoint x="450" y="550" as="targetPoint" />
          </mxGeometry>
        </mxCell>
        <mxCell id="Yd9kcJZPeYB2t_xTYy9D-17" style="edgeStyle=orthogonalEdgeStyle;rounded=0;orthogonalLoop=1;jettySize=auto;html=1;entryX=0;entryY=0.5;entryDx=0;entryDy=0;" edge="1" parent="1" source="Yd9kcJZPeYB2t_xTYy9D-14" target="Yd9kcJZPeYB2t_xTYy9D-16">
          <mxGeometry relative="1" as="geometry" />
        </mxCell>
        <mxCell id="Yd9kcJZPeYB2t_xTYy9D-14" value="&lt;font style=&quot;font-size: 28px;&quot;&gt;User&lt;/font&gt;" style="shape=umlActor;verticalLabelPosition=bottom;verticalAlign=top;html=1;outlineConnect=0;" vertex="1" parent="1">
          <mxGeometry x="-540" y="240" width="120" height="190" as="geometry" />
        </mxCell>
        <mxCell id="Yd9kcJZPeYB2t_xTYy9D-18" style="edgeStyle=orthogonalEdgeStyle;rounded=0;orthogonalLoop=1;jettySize=auto;html=1;exitX=1;exitY=0.5;exitDx=0;exitDy=0;" edge="1" parent="1" source="Yd9kcJZPeYB2t_xTYy9D-16">
          <mxGeometry relative="1" as="geometry">
            <mxPoint x="80" y="335" as="targetPoint" />
          </mxGeometry>
        </mxCell>
        <mxCell id="Yd9kcJZPeYB2t_xTYy9D-16" value="" style="image;html=1;image=img/lib/clip_art/computers/Laptop_128x128.png" vertex="1" parent="1">
          <mxGeometry x="-280" y="295" width="80" height="80" as="geometry" />
        </mxCell>
        <mxCell id="Yd9kcJZPeYB2t_xTYy9D-19" value="www.abusaym.com" style="text;strokeColor=none;fillColor=none;html=1;fontSize=24;fontStyle=1;verticalAlign=middle;align=center;" vertex="1" parent="1">
          <mxGeometry x="-200" y="270" width="250" height="80" as="geometry" />
        </mxCell>
        <mxCell id="Yd9kcJZPeYB2t_xTYy9D-20" value="" style="shape=flexArrow;endArrow=classic;startArrow=classic;html=1;rounded=0;" edge="1" parent="1">
          <mxGeometry width="100" height="100" relative="1" as="geometry">
            <mxPoint x="580" y="230" as="sourcePoint" />
            <mxPoint x="460" y="110" as="targetPoint" />
          </mxGeometry>
        </mxCell>
        <mxCell id="Yd9kcJZPeYB2t_xTYy9D-21" value="backend" style="text;strokeColor=none;fillColor=none;html=1;fontSize=24;fontStyle=1;verticalAlign=middle;align=center;" vertex="1" parent="1">
          <mxGeometry x="230" y="260" width="100" height="40" as="geometry" />
        </mxCell>
        <mxCell id="Yd9kcJZPeYB2t_xTYy9D-22" value="frontend" style="text;strokeColor=none;fillColor=none;html=1;fontSize=24;fontStyle=1;verticalAlign=middle;align=center;" vertex="1" parent="1">
          <mxGeometry x="530" y="230" width="100" height="40" as="geometry" />
        </mxCell>
      </root>
    </mxGraphModel>
  </diagram>
  <diagram id="PZk_GJQu3x-2GtEZXmgy" name="Page-2">
    <mxGraphModel dx="1570" dy="937" grid="1" gridSize="10" guides="1" tooltips="1" connect="1" arrows="1" fold="1" page="1" pageScale="1" pageWidth="850" pageHeight="1100" math="0" shadow="0">
      <root>
        <mxCell id="0" />
        <mxCell id="1" parent="0" />
        <mxCell id="OABLbPbtJSVTgdC8YN61-1" value="" style="rounded=0;whiteSpace=wrap;html=1;" vertex="1" parent="1">
          <mxGeometry x="140" y="110" width="530" height="490" as="geometry" />
        </mxCell>
        <mxCell id="OABLbPbtJSVTgdC8YN61-2" value="Laptop" style="text;strokeColor=none;fillColor=none;html=1;fontSize=24;fontStyle=1;verticalAlign=middle;align=center;" vertex="1" parent="1">
          <mxGeometry x="355" y="60" width="100" height="40" as="geometry" />
        </mxCell>
        <mxCell id="OABLbPbtJSVTgdC8YN61-3" value="" style="rounded=1;whiteSpace=wrap;html=1;" vertex="1" parent="1">
          <mxGeometry x="170" y="140" width="160" height="430" as="geometry" />
        </mxCell>
        <mxCell id="OABLbPbtJSVTgdC8YN61-4" value="Docker" style="text;strokeColor=none;fillColor=none;html=1;fontSize=24;fontStyle=1;verticalAlign=middle;align=center;" vertex="1" parent="1">
          <mxGeometry x="190" y="160" width="100" height="40" as="geometry" />
        </mxCell>
        <mxCell id="OABLbPbtJSVTgdC8YN61-9" value="" style="group" vertex="1" connectable="0" parent="1">
          <mxGeometry x="180" y="400" width="120" height="60" as="geometry" />
        </mxCell>
        <mxCell id="OABLbPbtJSVTgdC8YN61-6" value="" style="shape=process;whiteSpace=wrap;html=1;backgroundOutline=1;" vertex="1" parent="OABLbPbtJSVTgdC8YN61-9">
          <mxGeometry width="120" height="60" as="geometry" />
        </mxCell>
        <mxCell id="OABLbPbtJSVTgdC8YN61-8" value="pgadmin" style="text;strokeColor=none;fillColor=none;html=1;fontSize=24;fontStyle=1;verticalAlign=middle;align=center;" vertex="1" parent="OABLbPbtJSVTgdC8YN61-9">
          <mxGeometry x="10" y="10" width="100" height="40" as="geometry" />
        </mxCell>
        <mxCell id="OABLbPbtJSVTgdC8YN61-10" value="" style="group" vertex="1" connectable="0" parent="1">
          <mxGeometry x="180" y="240" width="120" height="60" as="geometry" />
        </mxCell>
        <mxCell id="OABLbPbtJSVTgdC8YN61-5" value="" style="shape=process;whiteSpace=wrap;html=1;backgroundOutline=1;" vertex="1" parent="OABLbPbtJSVTgdC8YN61-10">
          <mxGeometry width="120" height="60" as="geometry" />
        </mxCell>
        <mxCell id="OABLbPbtJSVTgdC8YN61-7" value="postgres" style="text;strokeColor=none;fillColor=none;html=1;fontSize=24;fontStyle=1;verticalAlign=middle;align=center;" vertex="1" parent="OABLbPbtJSVTgdC8YN61-10">
          <mxGeometry x="10" y="10" width="100" height="40" as="geometry" />
        </mxCell>
        <mxCell id="OABLbPbtJSVTgdC8YN61-11" value="" style="rounded=1;whiteSpace=wrap;html=1;" vertex="1" parent="1">
          <mxGeometry x="460" y="140" width="170" height="420" as="geometry" />
        </mxCell>
        <mxCell id="OABLbPbtJSVTgdC8YN61-14" value="" style="group" vertex="1" connectable="0" parent="1">
          <mxGeometry x="490" y="300" width="120" height="60" as="geometry" />
        </mxCell>
        <mxCell id="OABLbPbtJSVTgdC8YN61-12" value="" style="shape=process;whiteSpace=wrap;html=1;backgroundOutline=1;" vertex="1" parent="OABLbPbtJSVTgdC8YN61-14">
          <mxGeometry width="120" height="60" as="geometry" />
        </mxCell>
        <mxCell id="OABLbPbtJSVTgdC8YN61-13" value="django" style="text;strokeColor=none;fillColor=none;html=1;fontSize=24;fontStyle=1;verticalAlign=middle;align=center;" vertex="1" parent="OABLbPbtJSVTgdC8YN61-14">
          <mxGeometry x="10" y="10" width="100" height="40" as="geometry" />
        </mxCell>
        <mxCell id="OABLbPbtJSVTgdC8YN61-15" value="" style="shape=flexArrow;endArrow=classic;startArrow=classic;html=1;rounded=0;exitX=1;exitY=0.5;exitDx=0;exitDy=0;entryX=0;entryY=0.5;entryDx=0;entryDy=0;" edge="1" parent="1" source="OABLbPbtJSVTgdC8YN61-3" target="OABLbPbtJSVTgdC8YN61-11">
          <mxGeometry width="100" height="100" relative="1" as="geometry">
            <mxPoint x="370" y="530" as="sourcePoint" />
            <mxPoint x="470" y="430" as="targetPoint" />
          </mxGeometry>
        </mxCell>
        <mxCell id="OABLbPbtJSVTgdC8YN61-16" value="localhost" style="text;strokeColor=none;fillColor=none;html=1;fontSize=24;fontStyle=1;verticalAlign=middle;align=center;" vertex="1" parent="1">
          <mxGeometry x="340" y="300" width="100" height="40" as="geometry" />
        </mxCell>
      </root>
    </mxGraphModel>
  </diagram>
</mxfile>
